REM DIRINDEX 1\2,1\3
REM DIRNAME cjc102,folder01,folder02
TITLE ""
FILE "CD2Track34.mp3" MP3
  TRACK 01 AUDIO
    TITLE "0:"
    INDEX 01 00:00:00
  TRACK 02 AUDIO
    TITLE "3:cjc102_3927"
    INDEX 01 00:00:25
  TRACK 03 AUDIO
    TITLE "0:"
    INDEX 01 00:01:22
  TRACK 04 AUDIO
    TITLE "2:cjc102_3928"
    INDEX 01 00:01:68
  TRACK 05 AUDIO
    TITLE "0:"
    INDEX 01 00:03:15
  TRACK 06 AUDIO
    TITLE "3:cjc102_3929"
    INDEX 01 00:04:05
  TRACK 07 AUDIO
    TITLE "0:"
    INDEX 01 00:04:64
  TRACK 08 AUDIO
    TITLE "2:cjc102_3930"
    INDEX 01 00:05:14
  TRACK 09 AUDIO
    TITLE "0:"
    INDEX 01 00:06:22
  TRACK 10 AUDIO
    TITLE "3:cjc102_3931"
    INDEX 01 00:07:66
  TRACK 11 AUDIO
    TITLE "0:"
    INDEX 01 00:08:64
  TRACK 12 AUDIO
    TITLE "2:cjc102_3932"
    INDEX 01 00:09:10
  TRACK 13 AUDIO
    TITLE "0:"
    INDEX 01 00:10:41
  TRACK 14 AUDIO
    TITLE "3:cjc102_3933"
    INDEX 01 00:12:18
  TRACK 15 AUDIO
    TITLE "0:"
    INDEX 01 00:13:12
  TRACK 16 AUDIO
    TITLE "2:cjc102_3934"
    INDEX 01 00:13:16
  TRACK 17 AUDIO
    TITLE "0:"
    INDEX 01 00:14:31
  TRACK 18 AUDIO
    TITLE "3:cjc102_3935"
    INDEX 01 00:16:06
  TRACK 19 AUDIO
    TITLE "0:"
    INDEX 01 00:16:61
  TRACK 20 AUDIO
    TITLE "2:cjc102_3936"
    INDEX 01 00:17:12
  TRACK 21 AUDIO
    TITLE "0:"
    INDEX 01 00:18:37
  TRACK 22 AUDIO
    TITLE "3:cjc102_3937"
    INDEX 01 00:19:50
  TRACK 23 AUDIO
    TITLE "0:"
    INDEX 01 00:20:47
  TRACK 24 AUDIO
    TITLE "2:cjc102_3938"
    INDEX 01 00:20:71
  TRACK 25 AUDIO
    TITLE "0:"
    INDEX 01 00:22:15
  TRACK 26 AUDIO
    TITLE "3:cjc102_3939"
    INDEX 01 00:23:42
  TRACK 27 AUDIO
    TITLE "0:"
    INDEX 01 00:24:37
  TRACK 28 AUDIO
    TITLE "2:cjc102_3940"
    INDEX 01 00:24:71
  TRACK 29 AUDIO
    TITLE "0:"
    INDEX 01 00:26:15
  TRACK 30 AUDIO
    TITLE "2:cjc102_3941"
    INDEX 01 00:26:44
  TRACK 31 AUDIO
    TITLE "0:"
    INDEX 01 00:27:69
  TRACK 32 AUDIO
    TITLE "3:cjc102_3942"
    INDEX 01 00:28:62
  TRACK 33 AUDIO
    TITLE "0:"
    INDEX 01 00:29:58
  TRACK 34 AUDIO
    TITLE "2:cjc102_3943"
    INDEX 01 00:30:03
  TRACK 35 AUDIO
    TITLE "0:"
    INDEX 01 00:31:14
  TRACK 36 AUDIO
    TITLE "2:cjc102_3944"
    INDEX 01 00:31:67
  TRACK 37 AUDIO
    TITLE "0:"
    INDEX 01 00:33:15
  TRACK 38 AUDIO
    TITLE "3:cjc102_3945"
    INDEX 01 00:34:06
  TRACK 39 AUDIO
    TITLE "0:"
    INDEX 01 00:34:73
  TRACK 40 AUDIO
    TITLE "2:cjc102_3946"
    INDEX 01 00:35:45
  TRACK 41 AUDIO
    TITLE "0:"
    INDEX 01 00:36:54
  TRACK 42 AUDIO
    TITLE "2:cjc102_3947"
    INDEX 01 00:37:22
  TRACK 43 AUDIO
    TITLE "0:"
    INDEX 01 00:38:30
  TRACK 44 AUDIO
    TITLE "3:cjc102_3948"
    INDEX 01 00:39:19
  TRACK 45 AUDIO
    TITLE "0:"
    INDEX 01 00:40:11
  TRACK 46 AUDIO
    TITLE "2:cjc102_3949"
    INDEX 01 00:40:56
  TRACK 47 AUDIO
    TITLE "0:"
    INDEX 01 00:41:59
  TRACK 48 AUDIO
    TITLE "2:cjc102_3950"
    INDEX 01 00:42:35
  TRACK 49 AUDIO
    TITLE "0:"
    INDEX 01 00:43:52
  TRACK 50 AUDIO
    TITLE "3:cjc102_3951"
    INDEX 01 00:44:63
  TRACK 51 AUDIO
    TITLE "0:"
    INDEX 01 00:46:07
  TRACK 52 AUDIO
    TITLE "2:cjc102_3952"
    INDEX 01 00:46:15
  TRACK 53 AUDIO
    TITLE "0:"
    INDEX 01 00:47:42
  TRACK 54 AUDIO
    TITLE "2:cjc102_3953"
    INDEX 01 00:48:08
  TRACK 55 AUDIO
    TITLE "0:"
    INDEX 01 00:49:23
  TRACK 56 AUDIO
    TITLE "3:cjc102_3954"
    INDEX 01 00:50:07
  TRACK 57 AUDIO
    TITLE "0:"
    INDEX 01 00:51:20
  TRACK 58 AUDIO
    TITLE "2:cjc102_3955"
    INDEX 01 00:51:48
  TRACK 59 AUDIO
    TITLE "0:"
    INDEX 01 00:53:00
  TRACK 60 AUDIO
    TITLE "2:cjc102_3956"
    INDEX 01 00:53:51
  TRACK 61 AUDIO
    TITLE "0:"
    INDEX 01 00:54:64
